HIERARCHY
ROOT RootJoint
{
    OFFSET   0.000000   0.000000   0.000000
    CHANNELS 6 Xposition Yposition Zposition Xrotation Yrotation Zrotation
    JOINT pelvis_lowerback
    {
        OFFSET   0.000000   0.093605   0.000000
        CHANNELS 3 Xrotation Yrotation Zrotation
        JOINT lowerback_torso
        {
            OFFSET   0.000000   0.100000   0.000000
            CHANNELS 3 Xrotation Yrotation Zrotation
            JOINT torso_head
            {
                OFFSET   0.000000   0.282350   0.000000
                CHANNELS 3 Xrotation Yrotation Zrotation
                End Site
                {
                    OFFSET   0.000000   0.192650   0.000000
                }
            }
            JOINT rTorso_Clavicle
            {
                OFFSET  -0.001000   0.157500   0.000000
                CHANNELS 3 Xrotation Yrotation Zrotation
                JOINT rShoulder
                {
                    OFFSET  -0.117647   0.000000   0.000000
                    CHANNELS 3 Xrotation Yrotation Zrotation
                    JOINT rElbow
                    {
                        OFFSET  -0.245000   0.000000   0.000000
                        CHANNELS 3 Xrotation Yrotation Zrotation
                        JOINT rWrist
                        {
                            OFFSET  -0.240000   0.000000   0.000000
                            CHANNELS 3 Xrotation Yrotation Zrotation
                            End Site
                            {
                                OFFSET  -0.116353  -0.002500   0.000000
                            }
                        }
                    }
                }
            }
            JOINT lTorso_Clavicle
            {
                OFFSET   0.001000   0.157500   0.000000
                CHANNELS 3 Xrotation Yrotation Zrotation
                JOINT lShoulder
                {
                    OFFSET   0.117647   0.000000   0.000000
                    CHANNELS 3 Xrotation Yrotation Zrotation
                    JOINT lElbow
                    {
                        OFFSET   0.245000   0.000000   0.000000
                        CHANNELS 3 Xrotation Yrotation Zrotation
                        JOINT lWrist
                        {
                            OFFSET   0.240000   0.000000   0.000000
                            CHANNELS 3 Xrotation Yrotation Zrotation
                            End Site
                            {
                                OFFSET   0.116353  -0.002500   0.000000
                            }
                        }
                    }
                }
            }
        }
    }
    JOINT rHip
    {
        OFFSET  -0.100000  -0.051395   0.000000
        CHANNELS 3 Xrotation Yrotation Zrotation
        JOINT rKnee
        {
            OFFSET   0.000000  -0.410000   0.000000
            CHANNELS 3 Xrotation Yrotation Zrotation
            JOINT rAnkle
            {
                OFFSET   0.000000  -0.390000   0.000000
                CHANNELS 3 Xrotation Yrotation Zrotation
                JOINT rToeJoint
                {
                    OFFSET   0.000000  -0.050000   0.130000
                    CHANNELS 3 Xrotation Yrotation Zrotation
                    End Site
                    {
                        OFFSET  -0.010000   0.002000   0.060000
                    }
                }
            }
        }
    }
    JOINT lHip
    {
        OFFSET   0.100000  -0.051395   0.000000
        CHANNELS 3 Xrotation Yrotation Zrotation
        JOINT lKnee
        {
            OFFSET   0.000000  -0.410000   0.000000
            CHANNELS 3 Xrotation Yrotation Zrotation
            JOINT lAnkle
            {
                OFFSET   0.000000  -0.390000   0.000000
                CHANNELS 3 Xrotation Yrotation Zrotation
                JOINT lToeJoint
                {
                    OFFSET   0.000000  -0.050000   0.130000
                    CHANNELS 3 Xrotation Yrotation Zrotation
                    End Site
                    {
                        OFFSET   0.010000   0.002000   0.060000
                    }
                }
            }
        }
    }
}
MOTION
Frames: 7
Frame Time:   0.008333
 -0.072710   1.052913  -1.513438 -14.052388  -7.974839  -5.577695  18.351211  -4.612122   6.685231   4.968237  -9.309913   3.807270   2.463932  -0.001113  -4.134098   8.968778   1.064167  -6.668300  30.038044  10.590672  38.009397   0.002941  69.422932  -0.003863   5.730304   2.161466  -5.976665   5.164540  -9.379099   4.413701  10.692359 -26.285320 -31.955142 179.830337 -82.731284 179.837459   4.201849  -5.221662   5.459713 -32.788092  -9.815395  -5.852490  65.182040   0.017089  -0.004221  22.691609  -1.518111  13.627846  -8.298252   0.012853  -0.003106   2.211673   5.557843   5.968853  35.133914  -0.034052  -0.023893  23.036517  -4.273268 -10.128420  -9.054082   0.027157  -0.000011
 -0.075199   1.054061  -1.510671 -14.222486  -8.273868  -4.877953  18.050268  -4.166791   5.887946   4.925902  -9.030678   3.430796   2.699969  -0.256253  -4.172329   9.092186   1.129722  -6.622933  28.788445  11.032944  38.496441   0.003984  69.325409  -0.004408   5.469475   2.013877  -5.513264   5.409909  -8.931024   4.489744  11.016927 -25.456798 -31.624234 179.777033 -83.610427 179.784217   4.002579  -5.490160   5.448124 -29.580971  -9.639369  -5.647456  61.274427   0.020740  -0.004052  24.972197  -1.349846  13.482638  -9.398315   0.010030  -0.001687   0.510480   5.552472   5.762206  39.098306  -0.040417  -0.012598  21.500860  -4.159714  -9.912316  -9.057041   0.021739   0.000005
 -0.077866   1.054254  -1.507905 -14.366691  -8.619313  -4.196102  17.746962  -3.674381   5.066929   4.873582  -8.682738   3.055843   2.932369  -0.503026  -4.208401   9.147219   1.243430  -6.579697  27.552936  11.461260  38.945105   0.004609  69.244743  -0.004594   5.210193   1.853685  -5.265425   5.660074  -8.440631   4.604565  11.355321 -24.612802 -31.288829 179.712484 -84.479684 179.719965   3.794912  -5.521760   5.410542 -26.422204  -9.480923  -5.463596  57.482684   0.024253  -0.002346  27.098756  -1.203175  13.338852 -10.394269   0.008094  -0.000436  -1.266491   5.545503   5.622902  43.010042  -0.046619  -0.003457  20.061590  -4.055842  -9.707290  -9.095082   0.017580  -0.000082
 -0.080597   1.053448  -1.505077 -14.504263  -9.010280  -3.528580  17.460256  -3.127908   4.254568   4.809988  -8.276408   2.670052   3.149372  -0.733894  -4.247004   9.170363   1.389031  -6.556260  26.366326  11.865640  39.352590   0.004809  69.179499  -0.004443   4.966520   1.738455  -5.128881   5.902230  -7.939689   4.732644  11.682995 -23.788186 -30.968597 179.637191 -85.305324 179.645099   3.586569  -5.439702   5.385410 -23.358048  -9.327837  -5.321984  53.943177   0.026948   0.000567  29.082767  -1.072137  13.198697 -11.305252   0.006752   0.000841  -3.064006   5.524614   5.524405  46.874810  -0.052749   0.003419  18.715818  -3.962806  -9.513235  -9.140706   0.014311  -0.000166
 -0.083339   1.051649  -1.502167 -14.640878  -9.436739  -2.881201  17.195520  -2.542890   3.469212   4.742447  -7.829014   2.280718   3.351101  -0.948654  -4.286684   9.170992   1.557268  -6.554447  25.234231  12.244202  39.720606   0.004740  69.125189  -0.004115   4.737600   1.660308  -5.059775   6.134091  -7.442444   4.860274  11.993956 -22.995313 -30.670617 179.548505 -86.082687 179.556870   3.382256  -5.308650   5.379794 -20.402302  -9.180095  -5.218955  50.673810   0.028604   0.003871  30.935611  -0.954800  13.062935 -12.137008   0.005777   0.002042  -4.854989   5.489821   5.464157  50.701753  -0.058690   0.008810  17.457899  -3.879693  -9.329820  -9.189888   0.011731  -0.000239
 -0.086057   1.048877  -1.499168 -14.777375  -9.891222  -2.256080  16.954116  -1.935443   2.719105   4.675394  -7.356162   1.895099   3.538682  -1.148324  -4.325987   9.154206   1.740831  -6.570724  24.157497  12.597974  40.053704   0.004506  69.079440  -0.003707   4.521924   1.609918  -5.039008   6.356137  -6.956410   4.980882  12.287527 -22.239460 -30.397093 179.439845 -86.812179 179.448609   3.183789  -5.155444   5.387934 -17.562390  -9.037873  -5.149360  47.662086   0.029326   0.007021  32.666437  -0.849605  12.932118 -12.896110   0.005046   0.003070  -6.620923   5.442307   5.437545  54.497595  -0.064304   0.013281  16.282316  -3.805490  -9.156701  -9.240774   0.009690  -0.000302
 -0.088724   1.045155  -1.496085 -14.912926 -10.368580  -1.653400  16.735651  -1.319070   2.008040   4.611277  -6.870559   1.518581   3.713133  -1.334048  -4.364042   9.124109   1.933653  -6.600226  23.135806  12.928762  40.357152   0.004171  69.040845  -0.003278   4.318276   1.581898  -5.053848   6.569139  -6.486026   5.091238  12.564355 -21.522874 -30.148160 179.297001 -87.495587 179.306038   2.991892  -4.992411   5.402362 -14.843370  -8.901584  -5.108345  44.888231   0.029340   0.009734  34.283338  -0.755219  12.806629 -13.589121   0.004494   0.003875  -8.347368   5.383664   5.438614  58.267987  -0.069474   0.017191  15.183826  -3.739281  -8.993505  -9.292235   0.008070  -0.000356
